<svg xmlns="http://www.w3.org/2000/svg" width="300" height="300"><path d="M186.604 279.16c0-4.187 6.833-20.983 15.185-37.324 8.35-16.34 17.89-39.574 21.2-51.63 5.946-21.665 8.01-56.85 3.697-63.06-2.738-3.942-16.413-13.452-19.344-13.452-1.18 0-5.08 9.88-8.668 21.957-3.59 12.078-7.773 24.326-9.298 27.22-1.525 2.89-2.773 6.782-2.773 8.645 0 1.863-3.407 10.17-7.572 18.462-4.164 8.29-7.572 17.007-7.572 19.37 0 2.36-2.774 7.068-6.165 10.46-5.31 5.31-6.76 5.57-10.444 1.886-3.683-3.685-3.4-6.744 2.05-22.066 3.48-9.783 8.86-21.406 11.958-25.827 3.097-4.422 5.63-9.783 5.63-11.913 0-4.513 11.02-37.568 15.746-47.232 3.727-7.622 1.415-16.105-4.388-16.105-4.996 0-13.14-25.737-11.978-37.858 1.245-12.992 11.764-32.7 23.552-44.126 8.525-8.262 10.88-9.208 14.804-5.95 6.688 5.55 5.81 10.134-3.662 19.098-25.426 24.064-27.31 36.974-8.114 55.615 5.773 5.605 11.547 10.19 12.833 10.19 3.62 0 26.665 21.982 30.178 28.785 4.592 8.89-2.758 61.965-12.16 87.82-18.497 50.86-44.694 90.153-44.694 67.035zM61.67 243.57c-11.04-6.193-14.435-19.056-13.897-52.647.594-37.108 4.893-57.407 13.423-63.38 3.315-2.323 13.887-5.676 23.494-7.452 30.94-5.72 57.677 4.306 60.74 22.775 2.76 16.63 2.556 60.257-.338 72.523-3.892 16.493-5.61 18.812-17.66 23.848-12.798 5.347-58.58 8.365-65.76 4.335zm27.786-45.83c.207-12.98-.436-14.383-6.585-14.345-20.315.123-22.892 4.42-18.52 30.875 1.42 8.59 3.728 11.865 9.81 13.928 7.136 2.42 8.32 1.733 11.51-6.687 1.955-5.16 3.66-15.858 3.786-23.77zm38.955 10.7c3.767-21.86 2.436-25.087-10.35-25.087-8.13 0-10.943 1.555-13.107 7.247-1.515 3.986-2.245 9.778-1.622 12.872 4.52 22.426 4.434 22.283 13.37 22.283 8.252 0 8.89-.944 11.71-17.314zM89.784 160.64c.902-4.997 1.07-12.255.374-16.13-1.06-5.904-2.547-6.73-9.197-5.1-10.805 2.646-14.92 7.45-15.584 18.2-.857 13.875-.695 14.06 11.425 13.056 9.935-.823 11.548-2.07 12.983-10.026zm39.894-7.56c-1.098-16.687-2.99-18.77-14.89-16.39-9.605 1.922-10.13 4.064-7.21 29.433.154 1.35 5.392 2.032 11.64 1.515l11.356-.94-.896-13.616zM74.25 106.784c-7.497-5.722-14.997-22.334-13.565-30.046.71-3.828 1.394-9.817 1.518-13.31.48-13.54 8.99-17.986 35.442-18.52 27.62-.558 33.808 2.668 41.8 21.795 10.177 24.357-8.946 44.05-42.6 43.867-9.767-.054-19.935-1.758-22.594-3.787zm46.806-18.076c10.406-10.708 1.495-25.48-17.2-28.514-23.04-3.74-36.47 7.814-28.757 24.74 3.15 6.916 5.096 7.56 22.86 7.56 11.552 0 20.907-1.534 23.096-3.786zm-75.59-57.272c-3-4.873 3.078-11.193 12.453-12.95 5.617-1.055 22.9-1.994 38.405-2.087 15.505-.093 34.143-.21 41.417-.257 14.18-.095 21.123 5.492 14.68 11.815-3.96 3.886-104.69 7.164-106.956 3.48z" fill="#02b3e4"/></svg>